<mxfile host="app.diagrams.net" modified="2020-08-28T13:01:56.978Z" agent="5.0 (Windows)" etag="U6LJspCin7m25lAiQJvh" version="13.6.5" type="github">
  <diagram id="CY4ULaTwwWA3EwAkGtIX" name="Page-1">
    <mxGraphModel dx="1038" dy="547" grid="1" gridSize="10" guides="1" tooltips="1" connect="1" arrows="1" fold="1" page="1" pageScale="1" pageWidth="1169" pageHeight="827" math="0" shadow="0">
      <root>
        <mxCell id="0" />
        <mxCell id="1" parent="0" />
        <mxCell id="r_VWNVGvAQIn86OGMZg3-1" value="Office repairs and maintenance" style="swimlane;html=1;childLayout=stackLayout;resizeParent=1;resizeParentMax=0;horizontal=1;startSize=20;horizontalStack=0;" vertex="1" parent="1">
          <mxGeometry x="120" y="90" width="850" height="515" as="geometry" />
        </mxCell>
        <mxCell id="r_VWNVGvAQIn86OGMZg3-2" value="Officer" style="swimlane;html=1;startSize=20;horizontal=0;" vertex="1" parent="r_VWNVGvAQIn86OGMZg3-1">
          <mxGeometry y="20" width="850" height="130" as="geometry" />
        </mxCell>
        <mxCell id="r_VWNVGvAQIn86OGMZg3-5" value="Start" style="rounded=1;whiteSpace=wrap;html=1;" vertex="1" parent="r_VWNVGvAQIn86OGMZg3-2">
          <mxGeometry x="110" y="10" width="80" height="40" as="geometry" />
        </mxCell>
        <mxCell id="r_VWNVGvAQIn86OGMZg3-6" value="An officer report a broken item" style="rounded=0;whiteSpace=wrap;html=1;" vertex="1" parent="r_VWNVGvAQIn86OGMZg3-2">
          <mxGeometry x="90" y="70" width="120" height="50" as="geometry" />
        </mxCell>
        <mxCell id="r_VWNVGvAQIn86OGMZg3-3" value="HRM" style="swimlane;html=1;startSize=20;horizontal=0;" vertex="1" parent="r_VWNVGvAQIn86OGMZg3-1">
          <mxGeometry y="150" width="850" height="125" as="geometry" />
        </mxCell>
        <mxCell id="r_VWNVGvAQIn86OGMZg3-21" value="Review memo and approve" style="rounded=0;whiteSpace=wrap;html=1;" vertex="1" parent="r_VWNVGvAQIn86OGMZg3-3">
          <mxGeometry x="260" y="40" width="120" height="60" as="geometry" />
        </mxCell>
        <mxCell id="r_VWNVGvAQIn86OGMZg3-8" value="Receive information and assign repair officer" style="whiteSpace=wrap;html=1;rounded=0;" vertex="1" parent="r_VWNVGvAQIn86OGMZg3-3">
          <mxGeometry x="90" y="40" width="120" height="60" as="geometry" />
        </mxCell>
        <mxCell id="r_VWNVGvAQIn86OGMZg3-4" value="Admin Officer" style="swimlane;html=1;startSize=20;horizontal=0;" vertex="1" parent="r_VWNVGvAQIn86OGMZg3-1">
          <mxGeometry y="275" width="850" height="120" as="geometry" />
        </mxCell>
        <mxCell id="r_VWNVGvAQIn86OGMZg3-19" value="Undertake repair and file documents for reporting" style="whiteSpace=wrap;html=1;" vertex="1" parent="r_VWNVGvAQIn86OGMZg3-4">
          <mxGeometry x="550" y="30" width="120" height="60" as="geometry" />
        </mxCell>
        <mxCell id="r_VWNVGvAQIn86OGMZg3-10" value="Assess broken item and forward memo to HRM" style="whiteSpace=wrap;html=1;rounded=0;" vertex="1" parent="r_VWNVGvAQIn86OGMZg3-4">
          <mxGeometry x="90" y="30" width="120" height="60" as="geometry" />
        </mxCell>
        <mxCell id="r_VWNVGvAQIn86OGMZg3-15" value="Raise imprest/procure for repair" style="whiteSpace=wrap;html=1;" vertex="1" parent="r_VWNVGvAQIn86OGMZg3-4">
          <mxGeometry x="370" y="35" width="120" height="60" as="geometry" />
        </mxCell>
        <mxCell id="r_VWNVGvAQIn86OGMZg3-23" value="" style="edgeStyle=orthogonalEdgeStyle;rounded=0;orthogonalLoop=1;jettySize=auto;html=1;" edge="1" parent="r_VWNVGvAQIn86OGMZg3-4" source="r_VWNVGvAQIn86OGMZg3-19">
          <mxGeometry relative="1" as="geometry">
            <mxPoint x="730" y="60" as="targetPoint" />
          </mxGeometry>
        </mxCell>
        <mxCell id="r_VWNVGvAQIn86OGMZg3-24" value="End" style="rounded=1;whiteSpace=wrap;html=1;" vertex="1" parent="r_VWNVGvAQIn86OGMZg3-4">
          <mxGeometry x="730" y="38" width="80" height="40" as="geometry" />
        </mxCell>
        <mxCell id="r_VWNVGvAQIn86OGMZg3-7" value="Finance &amp;amp; Procurement" style="swimlane;html=1;startSize=20;horizontal=0;" vertex="1" parent="r_VWNVGvAQIn86OGMZg3-1">
          <mxGeometry y="395" width="850" height="120" as="geometry" />
        </mxCell>
        <mxCell id="r_VWNVGvAQIn86OGMZg3-17" value="Make necessary payment/procurement" style="whiteSpace=wrap;html=1;" vertex="1" parent="r_VWNVGvAQIn86OGMZg3-7">
          <mxGeometry x="370" y="35" width="120" height="60" as="geometry" />
        </mxCell>
        <mxCell id="r_VWNVGvAQIn86OGMZg3-9" value="" style="edgeStyle=orthogonalEdgeStyle;rounded=0;orthogonalLoop=1;jettySize=auto;html=1;" edge="1" parent="r_VWNVGvAQIn86OGMZg3-1" source="r_VWNVGvAQIn86OGMZg3-6" target="r_VWNVGvAQIn86OGMZg3-8">
          <mxGeometry relative="1" as="geometry" />
        </mxCell>
        <mxCell id="r_VWNVGvAQIn86OGMZg3-11" value="" style="edgeStyle=orthogonalEdgeStyle;rounded=0;orthogonalLoop=1;jettySize=auto;html=1;" edge="1" parent="r_VWNVGvAQIn86OGMZg3-1" source="r_VWNVGvAQIn86OGMZg3-8" target="r_VWNVGvAQIn86OGMZg3-10">
          <mxGeometry relative="1" as="geometry" />
        </mxCell>
        <mxCell id="r_VWNVGvAQIn86OGMZg3-13" value="" style="edgeStyle=orthogonalEdgeStyle;rounded=0;orthogonalLoop=1;jettySize=auto;html=1;" edge="1" parent="r_VWNVGvAQIn86OGMZg3-1" source="r_VWNVGvAQIn86OGMZg3-10">
          <mxGeometry relative="1" as="geometry">
            <mxPoint x="320" y="250" as="targetPoint" />
          </mxGeometry>
        </mxCell>
        <mxCell id="r_VWNVGvAQIn86OGMZg3-16" value="" style="edgeStyle=orthogonalEdgeStyle;rounded=0;orthogonalLoop=1;jettySize=auto;html=1;exitX=1;exitY=0.5;exitDx=0;exitDy=0;" edge="1" parent="r_VWNVGvAQIn86OGMZg3-1" source="r_VWNVGvAQIn86OGMZg3-21" target="r_VWNVGvAQIn86OGMZg3-15">
          <mxGeometry relative="1" as="geometry">
            <mxPoint x="360" y="210" as="sourcePoint" />
          </mxGeometry>
        </mxCell>
        <mxCell id="r_VWNVGvAQIn86OGMZg3-18" value="" style="edgeStyle=orthogonalEdgeStyle;rounded=0;orthogonalLoop=1;jettySize=auto;html=1;" edge="1" parent="r_VWNVGvAQIn86OGMZg3-1" source="r_VWNVGvAQIn86OGMZg3-15" target="r_VWNVGvAQIn86OGMZg3-17">
          <mxGeometry relative="1" as="geometry" />
        </mxCell>
        <mxCell id="r_VWNVGvAQIn86OGMZg3-20" value="" style="edgeStyle=orthogonalEdgeStyle;rounded=0;orthogonalLoop=1;jettySize=auto;html=1;" edge="1" parent="r_VWNVGvAQIn86OGMZg3-1" source="r_VWNVGvAQIn86OGMZg3-17" target="r_VWNVGvAQIn86OGMZg3-19">
          <mxGeometry relative="1" as="geometry" />
        </mxCell>
      </root>
    </mxGraphModel>
  </diagram>
</mxfile>
